<?xml version="1.0" encoding="utf-8"?>
<!-- Generator: Adobe Illustrator 25.0.0, SVG Export Plug-In . SVG Version: 6.00 Build 0)  -->
<svg version="1.1" id="Layer_1" xmlns="http://www.w3.org/2000/svg" xmlns:xlink="http://www.w3.org/1999/xlink" x="0px" y="0px"
	 viewBox="0 0 250 100" style="enable-background:new 0 0 250 100;" xml:space="preserve">
<style type="text/css">
	.st0{fill:#064790;}
	.st1{fill:#FFFFFF;}
	.st2{font-family:'Arial-BoldMT';}
	.st3{font-size:9.2473px;}
	.st4{fill:#FFC705;}
	.st5{font-size:13px;}
</style>
<rect class="st0" width="100" height="100"/>
<text transform="matrix(1 0 0 1 11.494 80.7836)"><tspan x="0" y="0" class="st1 st2 st3">Монгол улсын</tspan><tspan x="0" y="11.1" class="st1 st2 st3">засгийн газар</tspan></text>
<g id="soyombo">
	<path id="circle2461" class="st4" d="M50,43c-3.7,0-6.8,3-6.8,6.8c0,2.8,1.7,5.2,4.1,6.3c-0.7-0.7-1.2-1.7-1.2-2.7
		c0-2.1,1.7-3.8,3.8-3.8c0,0,0,0,0,0c1.8,0,3.3-1.5,3.3-3.3c0-1.6-1.2-3-2.7-3.2C50.4,43,50.2,43,50,43L50,43z M52.7,43.5
		c0.7,0.7,1.1,1.6,1.1,2.7c0,2.1-1.7,3.8-3.8,3.8c0,0,0,0,0,0c-1.8,0-3.3,1.5-3.3,3.3c0,1.7,1.3,3.1,3,3.3c0.1,0,0.2,0,0.2,0
		c3.7,0,6.8-3,6.8-6.8C56.8,47,55.1,44.6,52.7,43.5L52.7,43.5z M50,44.9c0.7,0,1.3,0.6,1.3,1.3c0,0.7-0.6,1.3-1.3,1.3
		c-0.7,0-1.3-0.6-1.3-1.3C48.7,45.5,49.3,44.9,50,44.9z M50,52c0.7,0,1.3,0.6,1.3,1.3c0,0.7-0.6,1.3-1.3,1.3c-0.7,0-1.3-0.6-1.3-1.3
		C48.7,52.6,49.3,52,50,52z"/>
	<path id="lower_bow_of_crescent" class="st4" d="M42.5,24.5c0,0,0,0.1,0,0.1c0,4.1,3.3,7.5,7.5,7.5s7.5-3.3,7.5-7.5
		c0,0,0-0.1,0-0.1c-1.3,2.9-4.1,4.9-7.5,4.9C46.7,29.4,43.8,27.4,42.5,24.5L42.5,24.5z"/>
	<circle id="upper_circle" class="st4" cx="50" cy="22.6" r="5.4">
	</circle>
	<path id="flame" class="st4" d="M49.9,5c-1,0.8-0.3,2-0.3,2.6c-0.1,0.7-0.4,0.8-0.6,1.4c-0.2,0.7-0.1,1.5,0,1.8
		c0.1,0.3,0.2,0.5,0.3,0.7c0,0,0,0,0,0v0v0c0,0,0,0,0,0s0,0,0,0v0v0v0c0,0,0,0.1,0,0.1c0,0.4-0.3,0.7-0.7,0.7
		c-0.4,0-0.7-0.3-0.7-0.7c0,0,0,0,0,0s0,0,0,0s0,0,0,0v0v0v0v0c0,0,0,0,0,0s0,0,0,0v0v0v0l0,0v0c0,0,0,0,0,0v0c0,0,0,0,0,0s0,0,0,0
		c0.1-0.4,0.4-0.7,0.4-1.1c0-0.6-0.4-0.9-0.5-1.1c-0.1-0.1-0.2-0.5,0-0.9c-0.3,0.4-0.6,0.6-0.6,1c0,0.3,0.2,0.6,0.1,1
		c0,0.5-0.8,0.8-0.8,2c0,1.9,1.5,3.4,3.4,3.4s3.4-1.5,3.4-3.4c0-1.2-0.8-1.5-0.8-2c0-0.4,0.1-0.7,0.1-1c0-0.4-0.3-0.7-0.6-1
		c0.2,0.4,0.1,0.8,0,0.9c-0.1,0.2-0.5,0.5-0.5,1.1c0,0.5,0.3,0.8,0.4,1.1v0v0v0c0,0,0,0,0,0s0,0,0,0c0,0,0,0,0,0c0,0,0,0,0,0
		c0,0,0,0,0,0c0,0,0,0,0,0s0,0,0,0v0v0c0,0,0,0,0,0c0,0.4-0.3,0.7-0.7,0.7c-0.3,0-0.5-0.2-0.6-0.5v0c0-0.1,0-0.1,0-0.2
		c0,0,0-0.1,0-0.1c0,0,0,0,0,0s0,0,0,0c0,0,0,0,0,0c0,0,0,0,0,0s0,0,0,0c0,0,0,0,0,0v0c0.1-0.2,0.2-0.5,0.3-0.6
		c0.1-0.3,0.3-0.8,0.3-1.4c0-0.5-0.1-1.5-0.7-2.3c-0.5-0.7-0.8-0.9-0.9-1.3C49.7,5.6,49.7,5.3,49.9,5L49.9,5z"/>
	<rect id="left_beam" x="35.1" y="33.5" class="st4" width="6.8" height="32.6"/>
	<rect id="right_beam" x="58.1" y="33.5" class="st4" width="6.8" height="32.6"/>
	<path id="upper_triangle" class="st4" d="M43.4,33.5h13.2L50,37.6L43.4,33.5L43.4,33.5z"/>
	<rect id="upper_crossbeam" x="43.2" y="38.9" class="st4" width="13.6" height="2.7"/>
	<rect id="lower_crossbeam" x="43.2" y="57.9" class="st4" width="13.6" height="2.7"/>
	<path id="lower_triangle" class="st4" d="M43.4,62h13.2L50,66.1L43.4,62L43.4,62z"/>
</g>
<text transform="matrix(1 0 0 1 106.4225 76.3415)"><tspan x="0" y="0" class="st0 st2 st5">Барилга хот </tspan><tspan x="0" y="15.6" class="st0 st2 st5">байгуулалтын яам</tspan></text>
</svg>
