<svg xmlns="http://www.w3.org/2000/svg" xmlns:xlink="http://www.w3.org/1999/xlink" version="1.1" id="Capa_1" x="0px" y="0px" viewBox="0 0 480 480" style="enable-background:new 0 0 480 480;" xml:space="preserve" width="512" height="512" class=""><g><path style="fill:#1E88E5;" d="M432,16h-64c-8.832,0-16,7.168-16,16v400c0,8.832,7.168,16,16,16h64c8.832,0,16-7.168,16-16V32  C448,23.168,440.832,16,432,16z" data-original="#1E88E5"></path><path style="fill:#2196F3;" d="M272,240h-64c-8.832,0-16,7.168-16,16v176c0,8.832,7.168,16,16,16h64c8.832,0,16-7.168,16-16V256  C288,247.168,280.832,240,272,240z" data-original="#2196F3"></path><path style="fill:#64B5F6;" d="M112,144H48c-8.832,0-16,7.168-16,16v272c0,8.832,7.168,16,16,16h64c8.832,0,16-7.168,16-16V160  C128,151.168,120.832,144,112,144z" data-original="#64B5F6"></path><path style="fill:#1E88E5" d="M464,464H16c-8.832,0-16-7.168-16-16s7.168-16,16-16h448c8.832,0,16,7.168,16,16S472.832,464,464,464  z" data-original="#455A64" class="active-path" data-old_color="#455A64"></path></g> </svg>