<svg width="100" height="100" viewBox="0 0 100 100" fill="none" xmlns="http://www.w3.org/2000/svg">
<rect width="100" height="100" fill="#3765DE"/>
<path d="M30.1704 81H26.8101V58.7241L20.0713 61.1992V58.1641L29.6465 54.5688H30.1704V81ZM56.457 69.7808C56.457 73.6951 55.7886 76.6038 54.4517 78.5068C53.1147 80.4098 51.0251 81.3613 48.1826 81.3613C45.3763 81.3613 43.2987 80.4339 41.9497 78.5791C40.6007 76.7122 39.9022 73.93 39.854 70.2324V65.77C39.854 61.9038 40.5225 59.0312 41.8594 57.1523C43.1963 55.2734 45.292 54.334 48.1465 54.334C50.9769 54.334 53.0605 55.2433 54.3975 57.062C55.7344 58.8687 56.4209 61.6629 56.457 65.4448V69.7808ZM53.1147 65.21C53.1147 62.3796 52.7173 60.32 51.9224 59.0312C51.1274 57.7305 49.8688 57.0801 48.1465 57.0801C46.4362 57.0801 45.1896 57.7244 44.4067 59.0132C43.6239 60.3019 43.2204 62.2832 43.1963 64.957V70.3047C43.1963 73.1471 43.6058 75.2489 44.4248 76.6099C45.2559 77.9588 46.5085 78.6333 48.1826 78.6333C49.8327 78.6333 51.0552 77.995 51.8501 76.7183C52.6571 75.4416 53.0786 73.4302 53.1147 70.6841V65.21ZM77.2334 69.7808C77.2334 73.6951 76.5649 76.6038 75.228 78.5068C73.8911 80.4098 71.8014 81.3613 68.959 81.3613C66.1527 81.3613 64.075 80.4339 62.7261 78.5791C61.3771 76.7122 60.6785 73.93 60.6304 70.2324V65.77C60.6304 61.9038 61.2988 59.0312 62.6357 57.1523C63.9727 55.2734 66.0684 54.334 68.9229 54.334C71.7533 54.334 73.8369 55.2433 75.1738 57.062C76.5107 58.8687 77.1973 61.6629 77.2334 65.4448V69.7808ZM73.8911 65.21C73.8911 62.3796 73.4937 60.32 72.6987 59.0312C71.9038 57.7305 70.6452 57.0801 68.9229 57.0801C67.2126 57.0801 65.966 57.7244 65.1831 59.0132C64.4002 60.3019 63.9967 62.2832 63.9727 64.957V70.3047C63.9727 73.1471 64.3822 75.2489 65.2012 76.6099C66.0322 77.9588 67.2848 78.6333 68.959 78.6333C70.609 78.6333 71.8315 77.995 72.6265 76.7183C73.4334 75.4416 73.855 73.4302 73.8911 70.6841V65.21Z" fill="white"/>
<path d="M50.5 14L53.0819 22.2918H61.4371L54.6776 27.4164L57.2595 35.7082L50.5 30.5836L43.7405 35.7082L46.3224 27.4164L39.5628 22.2918H47.9181L50.5 14Z" fill="white"/>
</svg>
