<svg xmlns="http://www.w3.org/2000/svg" xmlns:xlink="http://www.w3.org/1999/xlink" version="1.1" id="Layer_1" x="0px" y="0px" viewBox="0 0 512 512" style="enable-background:new 0 0 512 512;" xml:space="preserve" width="512" height="512" class=""><g><g>
	<path style="fill:#00A8FF" d="M329.206,281.74c-1.491,0-3-0.395-4.367-1.224c-3.986-2.415-5.258-7.606-2.841-11.591   l76.537-126.251c2.415-3.988,7.609-5.26,11.591-2.841c3.986,2.415,5.258,7.606,2.841,11.591L336.43,277.674   C334.842,280.292,332.058,281.74,329.206,281.74z" data-original="#F77935" class="active-path" data-old_color="#00BFFF"></path>
	<path style="fill:#00A8FF" d="M293.032,288.318c-1.825,0-3.665-0.589-5.211-1.805l-60.859-47.852   c-3.664-2.88-4.299-8.186-1.418-11.85c2.88-3.665,8.186-4.301,11.85-1.418l60.859,47.852c3.664,2.881,4.299,8.186,1.418,11.85   C298.007,287.212,295.532,288.318,293.032,288.318z" data-original="#F77935" class="active-path" data-old_color="#00BFFF"></path>
	<path style="fill:#00A8FF" d="M119.292,364.298c-1.569,0-3.156-0.438-4.572-1.351c-3.916-2.53-5.039-7.755-2.509-11.669   l76.038-117.679c2.532-3.915,7.754-5.036,11.669-2.508c3.915,2.53,5.039,7.755,2.508,11.669l-76.038,117.678   C124.773,362.936,122.061,364.298,119.292,364.298z" data-original="#F77935" class="active-path" data-old_color="#00BFFF"></path>
	<path style="fill:#00A8FF" d="M104.251,342.974c-19.945,0-36.172,16.226-36.172,36.172c0,19.946,16.226,36.172,36.172,36.172   s36.172-16.226,36.172-36.172C140.422,359.2,124.195,342.974,104.251,342.974z" data-original="#F77935" class="active-path" data-old_color="#00BFFF"></path>
</g><path style="fill:#0099FF" d="M104.251,342.974c-3.72,0-7.31,0.566-10.69,1.614c14.743,4.57,25.482,18.333,25.482,34.558  c0,16.225-10.738,29.989-25.482,34.558c3.38,1.048,6.97,1.614,10.69,1.614c19.945,0,36.172-16.226,36.172-36.172  C140.422,359.2,124.195,342.974,104.251,342.974z" data-original="#D9510D" class="" data-old_color="#D9510D"></path><path style="fill:#00A8FF" d="M210.386,178.717c-19.946,0-36.172,16.226-36.172,36.172s16.226,36.172,36.172,36.172  c19.944,0,36.171-16.226,36.171-36.172S230.33,178.717,210.386,178.717z" data-original="#F77935" class="active-path" data-old_color="#00BFFF"></path><path style="fill:#0099FF" d="M210.386,178.717c-3.928,0-7.708,0.638-11.253,1.802c14.45,4.743,24.918,18.353,24.918,34.37  c0,16.016-10.468,29.626-24.918,34.37c3.545,1.164,7.324,1.802,11.253,1.802c19.944,0,36.171-16.226,36.171-36.172  S230.33,178.717,210.386,178.717z" data-original="#D9510D" class="" data-old_color="#D9510D"></path><path style="fill:#00A8FF" d="M314.835,260.847c-19.946,0-36.172,16.226-36.172,36.172s16.226,36.172,36.172,36.172  c19.945,0,36.172-16.226,36.172-36.172S334.781,260.847,314.835,260.847z" data-original="#F77935" class="active-path" data-old_color="#00BFFF"></path><path style="fill:#0099FF" d="M314.835,260.847c-3.928,0-7.708,0.638-11.253,1.802c14.451,4.743,24.919,18.353,24.919,34.37  c0,16.017-10.467,29.627-24.919,34.37c3.545,1.164,7.324,1.802,11.253,1.802c19.945,0,36.172-16.226,36.172-36.172  S334.781,260.847,314.835,260.847z" data-original="#D9510D" class="" data-old_color="#D9510D"></path><path style="fill:#00A8FF" d="M420.127,87.157c-19.945,0-36.172,16.226-36.172,36.172s16.227,36.172,36.172,36.172  s36.172-16.226,36.172-36.172S440.072,87.157,420.127,87.157z" data-original="#F77935" class="active-path" data-old_color="#00BFFF"></path><path style="fill:#0099FF" d="M420.127,87.157c-3.928,0-7.708,0.638-11.253,1.802c14.451,4.743,24.919,18.353,24.919,34.37  s-10.467,29.627-24.919,34.37c3.545,1.164,7.324,1.802,11.253,1.802c19.945,0,36.172-16.226,36.172-36.172  S440.072,87.157,420.127,87.157z" data-original="#D9510D" class="" data-old_color="#D9510D"></path><path style="fill:#00BFFF" d="M502.998,512H9.002c-4.662,0-8.44-3.778-8.44-8.44V8.44C0.563,3.778,4.34,0,9.002,0  s8.44,3.778,8.44,8.44v486.681h485.556c4.662,0,8.44,3.778,8.44,8.44S507.66,512,502.998,512z" data-original="#808080" class="" data-old_color="#00B7FF"></path></g> </svg>