<?xml version="1.0" encoding="iso-8859-1"?>
<!-- Generator: Adobe Illustrator 19.0.0, SVG Export Plug-In . SVG Version: 6.00 Build 0)  -->
<svg version="1.1" id="Capa_1" xmlns="http://www.w3.org/2000/svg" xmlns:xlink="http://www.w3.org/1999/xlink" x="0px" y="0px"
	 viewBox="0 0 512.005 512.005" style="enable-background:new 0 0 512.005 512.005;" xml:space="preserve">
<g>
	<path style="fill:#F0C419;" d="M447.347,134.93c-41.391-41.48-97.611-64.749-156.21-64.653V0.003
		C213.919-0.01,139.86,30.659,85.258,85.261S-0.013,213.921,0,291.14h70.274c0.033,99.948,67.183,187.417,163.73,213.272
		c96.546,25.855,198.423-16.35,248.401-102.905S518.005,205.62,447.347,134.93z"/>
	<path style="fill:#F29C1F;" d="M291.137,291.14l-156.21,156.21c-41.48-41.392-64.748-97.611-64.653-156.21H291.137z"/>
	<path style="fill:#3B97D3;" d="M512.001,291.14H291.137l156.21-156.21C488.828,176.321,512.096,232.541,512.001,291.14z"/>
	<path style="fill:#46B29D;" d="M512.001,291.14c0.095,58.599-23.173,114.819-64.653,156.21l-156.21-156.21H512.001z"/>
	<path style="fill:#955BA5;" d="M447.347,447.35c-86.301,86.203-226.119,86.203-312.42,0l156.21-156.21L447.347,447.35z"/>
	<path style="fill:#E64C3C;" d="M291.137,0.003V291.14H0c-0.013-77.218,30.656-151.278,85.258-205.879S213.919-0.01,291.137,0.003z"
		/>
</g>
<g>
</g>
<g>
</g>
<g>
</g>
<g>
</g>
<g>
</g>
<g>
</g>
<g>
</g>
<g>
</g>
<g>
</g>
<g>
</g>
<g>
</g>
<g>
</g>
<g>
</g>
<g>
</g>
<g>
</g>
</svg>
