<svg xmlns="http://www.w3.org/2000/svg" xmlns:xlink="http://www.w3.org/1999/xlink" version="1.1" id="Layer_1" x="0px" y="0px" viewBox="0 0 512.002 512.002" style="enable-background:new 0 0 512.002 512.002;" xml:space="preserve" width="512" height="512" class=""><g><g><g><path style="fill:#E5F4F9" d="M305.596,372.459c0-15.325,12.424-27.748,27.748-27.748c4.08,0,7.951,0.888,11.441,2.47  l29.163-89.536c-12.113-2.979-21.1-13.908-21.1-26.94c0-7.759,3.188-14.77,8.321-19.805l-81.398-58.906  c-4.863,8.025-13.679,13.387-23.747,13.387c-10.072,0-18.89-5.366-23.752-13.395l-78.885,57.162  c4.498,4.932,7.243,11.491,7.243,18.693c0,15.325-12.424,27.749-27.748,27.749c-0.486,0-0.969-0.012-1.45-0.037l15.25,131.4  c2.009-0.463,4.097-0.715,6.247-0.715c14.41,0,26.251,10.985,27.615,25.038l127.217-28.056  C306.367,379.908,305.596,376.273,305.596,372.459z" data-original="#B3DFF0" class="" data-old_color="#D7EEF7"></path><g>
	<path style="fill:#FCFBFA" d="M279.77,151.993c-3.743,6.176-9.832,10.764-17.026,12.555l90.103,66.157   c0-7.759,3.188-14.77,8.321-19.805L279.77,151.993z" data-original="#FBA806" class="active-path" data-old_color="#F9F7F6"></path>
	<path style="fill:#FCFBFA" d="M352.847,230.704l-54.438,154.575l9.35-2.062c-1.393-3.308-2.164-6.943-2.164-10.757   c0-15.325,12.424-27.748,27.748-27.748c4.08,0,7.951,0.888,11.441,2.47l29.163-89.536   C361.834,254.665,352.847,243.737,352.847,230.704z" data-original="#FBA806" class="active-path" data-old_color="#F9F7F6"></path>
</g><g>
	<path style="fill:#00A0FF" d="M511.999,200.43c0.002-2.661-1.252-5.231-3.492-6.851L260.95,14.428   c-0.024-0.017-0.051-0.028-0.074-0.045c-0.323-0.23-0.662-0.436-1.017-0.618c-0.057-0.029-0.116-0.055-0.173-0.083   c-0.348-0.17-0.707-0.321-1.081-0.441c-0.016-0.006-0.032-0.012-0.047-0.017c-0.369-0.117-0.751-0.203-1.141-0.269   c-0.086-0.015-0.171-0.027-0.258-0.039c-0.376-0.052-0.757-0.088-1.147-0.088c-0.016,0-0.03,0.001-0.046,0.001   c-0.385,0.001-0.761,0.036-1.132,0.088c-0.088,0.012-0.175,0.025-0.262,0.041c-0.387,0.066-0.768,0.152-1.135,0.268   c-0.02,0.007-0.041,0.016-0.061,0.023c-0.369,0.12-0.724,0.27-1.069,0.438c-0.059,0.028-0.117,0.054-0.175,0.084   c-0.355,0.184-0.694,0.391-1.018,0.62c-0.024,0.017-0.05,0.027-0.072,0.044L3.487,193.818c-0.015,0.01-0.026,0.024-0.041,0.034   c-0.33,0.242-0.642,0.509-0.935,0.798c-0.042,0.042-0.081,0.083-0.123,0.125c-0.56,0.575-1.039,1.233-1.42,1.961   c-0.033,0.062-0.065,0.123-0.096,0.185c-0.171,0.347-0.323,0.706-0.447,1.082c-0.018,0.055-0.03,0.113-0.047,0.168   c-0.06,0.194-0.12,0.385-0.167,0.585c-0.03,0.133-0.047,0.266-0.071,0.4c-0.016,0.089-0.034,0.177-0.047,0.267   c-0.057,0.385-0.09,0.769-0.095,1.15c0,0.057,0.003,0.114,0.005,0.171c0.003,0.376,0.032,0.748,0.084,1.114   c0.007,0.046,0.01,0.092,0.017,0.137c0.064,0.401,0.161,0.792,0.281,1.175c0.01,0.034,0.014,0.069,0.025,0.102l94.559,290.074   c0.01,0.032,0.027,0.06,0.038,0.091c0.124,0.365,0.272,0.722,0.445,1.069c0.02,0.042,0.038,0.084,0.06,0.125   c0.182,0.35,0.393,0.686,0.625,1.01c0.041,0.057,0.082,0.113,0.125,0.168c0.466,0.618,1.023,1.178,1.669,1.663   c0.072,0.054,0.143,0.107,0.217,0.159c0.073,0.051,0.14,0.108,0.215,0.157c0.141,0.092,0.29,0.159,0.435,0.242   c0.167,0.096,0.329,0.195,0.502,0.279c0.234,0.115,0.474,0.207,0.714,0.298c0.153,0.057,0.301,0.123,0.457,0.172   c0.292,0.092,0.587,0.157,0.884,0.215c0.118,0.024,0.233,0.059,0.352,0.077c0.427,0.066,0.856,0.105,1.284,0.105   c0.006,0,0.012-0.001,0.018-0.001h305.978c0.006,0,0.012,0.001,0.018,0.001c0.428,0,0.857-0.038,1.284-0.105   c0.122-0.019,0.238-0.054,0.358-0.078c0.295-0.059,0.588-0.123,0.877-0.214c0.16-0.05,0.311-0.116,0.467-0.176   c0.236-0.09,0.472-0.181,0.704-0.294c0.178-0.087,0.345-0.188,0.515-0.286c0.141-0.081,0.287-0.145,0.424-0.236   c0.073-0.048,0.138-0.104,0.211-0.154c0.078-0.054,0.153-0.11,0.229-0.167c0.643-0.483,1.198-1.041,1.662-1.657   c0.043-0.056,0.084-0.113,0.126-0.17c0.232-0.324,0.444-0.661,0.626-1.011c0.02-0.039,0.037-0.081,0.057-0.12   c0.176-0.351,0.327-0.713,0.45-1.082c0.009-0.028,0.025-0.053,0.034-0.081l94.159-289.085   C511.742,203.086,512.036,201.779,511.999,200.43z M406.41,471.409l-51.198-77.941c-2.56-3.899-7.798-4.982-11.694-2.422   c-3.899,2.56-4.983,7.796-2.422,11.694l52.252,79.545H118.652l26.095-39.725c2.56-3.898,1.476-9.134-2.421-11.694   c-3.898-2.56-9.134-1.477-11.695,2.422l-25.044,38.127L21.101,212.245l79.586,18.374c0.64,0.148,1.279,0.218,1.907,0.218   c3.843,0,7.319-2.641,8.22-6.546c1.049-4.544-1.783-9.078-6.328-10.128l-76.062-17.561L247.555,37.816v69.352   c0,4.664,3.78,8.445,8.445,8.445c4.665,0,8.445-3.781,8.445-8.445V37.803L483.806,196.55l-76.46,17.652   c-4.544,1.049-7.377,5.584-6.328,10.128c0.902,3.906,4.377,6.546,8.22,6.546c0.629,0,1.269-0.071,1.907-0.218l79.672-18.395   L406.41,471.409z" data-original="#00A0FF" class="" data-old_color="#0099FF"></path>
	<path style="fill:#00A0FF" d="M350.689,227.283l-86.246,19.912v-79.881c0-4.664-3.78-8.445-8.445-8.445s-8.445,3.781-8.445,8.445   v79.881l-85.891-19.831c-4.552-1.052-9.078,1.785-10.128,6.329c-1.049,4.544,1.783,9.078,6.328,10.128l84.42,19.491L162.25,385.149   c-2.56,3.898-1.476,9.134,2.422,11.694c1.429,0.939,3.037,1.387,4.628,1.387c2.747,0,5.444-1.34,7.065-3.809l79.632-121.228   l52.972,80.642c1.621,2.469,4.317,3.809,7.065,3.809c1.591,0,3.2-0.449,4.628-1.387c3.899-2.56,4.983-7.796,2.422-11.694   l-53.372-81.251l84.774-19.572c4.544-1.049,7.377-5.584,6.328-10.128C359.768,229.067,355.232,226.232,350.689,227.283z" data-original="#00A0FF" class="" data-old_color="#0099FF"></path>
</g><path style="fill:#00A8FF" d="M180.542,419.717c-1.769,0-3.51-0.556-4.965-1.615c-1.954-1.421-3.207-3.611-3.44-6.016  c-0.963-9.924-9.22-17.407-19.21-17.407c-1.447,0-2.912,0.168-4.353,0.5c-2.343,0.539-4.801,0.054-6.762-1.331  c-1.963-1.385-3.243-3.54-3.52-5.926l-15.249-131.398c-0.286-2.468,0.529-4.938,2.228-6.751c1.701-1.813,4.121-2.778,6.594-2.656  c0.337,0.018,0.674,0.027,1.014,0.027c10.644,0,19.304-8.66,19.304-19.304c0-4.825-1.789-9.441-5.036-13.001  c-1.621-1.777-2.408-4.16-2.163-6.552c0.245-2.393,1.499-4.567,3.447-5.978l78.884-57.163c1.912-1.385,4.319-1.908,6.63-1.439  c2.314,0.468,4.326,1.884,5.549,3.903c3.537,5.839,9.716,9.325,16.529,9.325c6.812,0,12.989-3.484,16.527-9.321  c1.223-2.018,3.234-3.432,5.546-3.9c2.315-0.466,4.715,0.053,6.627,1.436l81.398,58.906c2.014,1.458,3.284,3.73,3.47,6.211  c0.185,2.48-0.732,4.916-2.509,6.659c-3.733,3.663-5.79,8.556-5.79,13.777c0,8.91,6.033,16.616,14.672,18.741  c2.28,0.561,4.223,2.045,5.365,4.097c1.141,2.051,1.376,4.486,0.647,6.718l-29.163,89.536c-0.743,2.283-2.424,4.143-4.622,5.112  c-2.199,0.968-4.705,0.956-6.892-0.036c-2.513-1.139-5.189-1.716-7.955-1.716c-10.644,0-19.304,8.66-19.304,19.304  c0,2.596,0.506,5.114,1.502,7.481c0.973,2.31,0.868,4.933-0.283,7.159c-1.152,2.226-3.234,3.826-5.681,4.365l-127.217,28.055  C181.758,419.651,181.149,419.717,180.542,419.717z M154.122,377.81c14.969,0.479,27.689,9.936,32.709,23.429l110.583-24.387  c-0.175-1.449-0.262-2.914-0.262-4.391c0-19.957,16.236-36.193,36.193-36.193c2.012,0,4,0.163,5.955,0.489l24.155-74.158  c-11.543-6.179-19.051-18.289-19.051-31.892c0-6.441,1.666-12.616,4.8-18.041l-67.877-49.123  c-6.668,6.55-15.645,10.284-25.303,10.284c-9.659,0-18.638-3.735-25.304-10.287l-65.712,47.618  c2.656,5.108,4.068,10.815,4.068,16.683c0,17.233-12.105,31.69-28.259,35.317L154.122,377.81z" data-original="#00A8FF" class="" data-old_color="#00AFFF"></path><path style="fill:#00B7FF" d="M256.022,101.439c-19.956,0-36.191,16.236-36.191,36.193s16.236,36.192,36.191,36.192  c19.957,0,36.193-16.236,36.193-36.192S275.979,101.439,256.022,101.439z" data-original="#00B7FF" class="" data-old_color="#7200FF"></path><path style="fill:#00A0FF" d="M256.022,101.439c-3.931,0-7.713,0.638-11.259,1.803c14.459,4.746,24.933,18.364,24.933,34.391  s-10.475,29.644-24.933,34.391c3.547,1.164,7.329,1.803,11.259,1.803c19.957,0,36.193-16.236,36.193-36.192  S275.979,101.439,256.022,101.439z" data-original="#00A0FF" class="" data-old_color="#0099FF"></path><path style="fill:#00B7FF" d="M380.596,194.512c-19.957,0-36.193,16.236-36.193,36.193c0,19.956,16.236,36.192,36.193,36.192  c19.957,0,36.193-16.236,36.193-36.192C416.789,210.747,400.553,194.512,380.596,194.512z" data-original="#00B7FF" class="" data-old_color="#7200FF"></path><path style="fill:#00A0FF" d="M380.596,194.512c-3.931,0-7.713,0.638-11.259,1.803c14.459,4.746,24.934,18.364,24.934,34.391  c0,16.026-10.474,29.644-24.934,34.39c3.547,1.164,7.329,1.803,11.259,1.803c19.957,0,36.193-16.236,36.193-36.192  C416.789,210.747,400.553,194.512,380.596,194.512z" data-original="#00A0FF" class="" data-old_color="#0099FF"></path><path style="fill:#00B7FF" d="M132.881,191.647c-19.956,0-36.192,16.236-36.192,36.193s16.236,36.192,36.192,36.192  c19.957,0,36.193-16.236,36.193-36.192C169.075,207.883,152.839,191.647,132.881,191.647z" data-original="#00B7FF" class="" data-old_color="#7200FF"></path><path style="fill:#00A0FF" d="M132.881,191.647c-3.931,0-7.713,0.638-11.259,1.803c14.459,4.746,24.933,18.364,24.933,34.391  c0,16.026-10.473,29.644-24.933,34.391c3.547,1.164,7.329,1.803,11.259,1.803c19.957,0,36.193-16.236,36.193-36.192  C169.075,207.883,152.839,191.647,132.881,191.647z" data-original="#00A0FF" class="" data-old_color="#0099FF"></path><path style="fill:#00B7FF" d="M333.344,336.267c-19.957,0-36.193,16.236-36.193,36.193c0,19.957,16.236,36.193,36.193,36.193  c19.957,0,36.193-16.236,36.193-36.193C369.537,352.503,353.301,336.267,333.344,336.267z" data-original="#00B7FF" class="" data-old_color="#7200FF"></path><path style="fill:#00A0FF" d="M333.344,336.267c-3.722,0-7.314,0.566-10.696,1.615c14.751,4.572,25.497,18.344,25.497,34.579  c0,16.235-10.745,30.006-25.497,34.579c3.382,1.048,6.974,1.615,10.696,1.615c19.957,0,36.193-16.236,36.193-36.193  C369.537,352.503,353.301,336.267,333.344,336.267z" data-original="#00A0FF" class="" data-old_color="#0099FF"></path><path style="fill:#00B7FF" d="M152.929,377.79c-19.957,0-36.192,16.236-36.192,36.193c0,19.957,16.236,36.193,36.192,36.193  s36.193-16.236,36.193-36.193C189.121,394.026,172.885,377.79,152.929,377.79z" data-original="#00B7FF" class="" data-old_color="#7200FF"></path><path style="fill:#00A0FF" d="M152.929,377.79c-3.931,0-7.713,0.638-11.259,1.803c14.459,4.746,24.934,18.364,24.934,34.391  s-10.475,29.645-24.934,34.391c3.547,1.164,7.329,1.803,11.259,1.803c19.957,0,36.193-16.236,36.193-36.193  C189.121,394.026,172.885,377.79,152.929,377.79z" data-original="#00A0FF" class="" data-old_color="#0099FF"></path></g></g></g> </svg>